[img]http://i.imgur.com/kcQEw.jpg[/img]

[code]

The.Impossible.2012.CAM.READNFO.XViD-26k
 
http://www.imdb.com/title/tt1649419/


Plot:

An account of a family caught, with tens of thousands of strangers, in the mayhem of one of the
 worst natural catastrophes of our time.


Sources - VIDEO: edmond dantes  ..... thanks .... :P
          AUDIO: edmond dantes  ..... thanks .... :P

         
Video
ID                                       : 0
Format                                   : MPEG-4 Visual
Format profile                           : Advanced Simple@L5
Format settings, BVOP                    : 2
Format settings, QPel                    : Yes
Format settings, GMC                     : No warppoints
Format settings, Matrix                  : Default (H.263)
Muxing mode                              : Packed bitstream
Codec ID                                 : XVID
Codec ID/Hint                            : XviD
Duration                                 : 1h 25mn
Bit rate                                 : 2 091 Kbps
Width                                    : 720 pixels
Height                                   : 256 pixels
Display aspect ratio                     : 2.813
Frame rate                               : 25.000 fps
Color space                              : YUV
Chroma subsampling                       : 4:2:0
Bit depth                                : 8 bits
Scan type                                : Progressive
Compression mode                         : Lossy
Bits/(Pixel*Frame)                       : 0.454
Stream size                              : 1.25 GiB (94%)
Writing library                          : XviD 64

Audio
ID                                       : 1
Format                                   : MPEG Audio
Format version                           : Version 1
Format profile                           : Layer 3
Codec ID                                 : 55
Codec ID/Hint                            : MP3
Duration                                 : 1h 25mn
Bit rate mode                            : Constant
Bit rate                                 : 128 Kbps
Channel(s)                               : 2 channels
Sampling rate                            : 44.1 KHz
Compression mode                         : Lossy
Delay relative to video                  : 9ms
Stream size                              : 78.6 MiB (6%)
Alignment                                : Split accross interleaves
Interleave, duration                     : 16345 ms (408.63 video frames)


Notes -

1st for the READNFO.. it is missign minutes and sum cam movement in the beginning.. decided against the rotate, 
perspectives and crop on this version as would caused it to b 720x214 and well thats just unacceptable so just 
did the other work that needed done.. it is more than watchable and the CAM audio is actually pretty damn nice.. 

enjoy 

PS:

Sidenote.. the AR does change a lil bit due to source comin in 2 dif files and choose AR to fit them both the best 

..

[/code]

Screens:

[img]http://i.imgur.com/LE5m0.png[/img]
[img]http://i.imgur.com/9abLO.png[/img]
[img]http://i.imgur.com/T5Xlb.png[/img]
[img]http://i.imgur.com/1RmHX.png[/img]
[img]http://i.imgur.com/UqbaK.jpg[/img]
[img]http://img546.imageshack.us/img546/9921/vlcsnap2012122813h23m18.png[/img]
[img]http://img191.imageshack.us/img191/9458/vlcsnap2012122813h23m26.png[/img]
[img]http://img4.imageshack.us/img4/9043/vlcsnap2012122813h23m33.png[/img]
[img]http://img22.imageshack.us/img22/7550/vlcsnap2012122813h23m41.png[/img]
[img]http://img266.imageshack.us/img266/3349/vlcsnap2012122813h23m22.png[/img]

Greetz:
XtremeEncode|CM8|RX|VISION|HDSCENE|xTriLL|ADTRG|CRYS|REMIXHD|HS|Tommiecook
BIDA|RX|REFILL|INSPiRAL|AXED|HOPE|Anonymous|GooN|NOIR|Blackjesus|Gabroo Punjab Deh
|UNiQUE|RESiSTANCE|TRiNiTY|LEGION

To all the people who have helped me, you know who you are

Anything to offer email us @: 26k@hushmail.me 